<mxfile host="app.diagrams.net" modified="2023-10-31T12:05:02.330Z" agent="Mozilla/5.0 (Macintosh; Intel Mac OS X 10_15_7) AppleWebKit/537.36 (KHTML, like Gecko) Chrome/118.0.0.0 Safari/537.36" etag="xK-FNwntIfuTVPOOFdng" version="22.0.8" type="device">
  <diagram name="第 1 页" id="zV1M50Q8JP6kUei96WL2">
    <mxGraphModel dx="1532" dy="647" grid="1" gridSize="10" guides="1" tooltips="1" connect="1" arrows="1" fold="1" page="1" pageScale="1" pageWidth="827" pageHeight="1169" math="0" shadow="0">
      <root>
        <mxCell id="0" />
        <mxCell id="1" parent="0" />
        <mxCell id="4H7mcCDcga6soc7QBMgQ-7" value="" style="edgeStyle=orthogonalEdgeStyle;rounded=0;orthogonalLoop=1;jettySize=auto;html=1;" edge="1" parent="1" source="4H7mcCDcga6soc7QBMgQ-3" target="4H7mcCDcga6soc7QBMgQ-6">
          <mxGeometry relative="1" as="geometry" />
        </mxCell>
        <mxCell id="4H7mcCDcga6soc7QBMgQ-37" value="" style="edgeStyle=orthogonalEdgeStyle;rounded=0;orthogonalLoop=1;jettySize=auto;html=1;" edge="1" parent="1" source="4H7mcCDcga6soc7QBMgQ-3" target="4H7mcCDcga6soc7QBMgQ-28">
          <mxGeometry relative="1" as="geometry" />
        </mxCell>
        <mxCell id="4H7mcCDcga6soc7QBMgQ-3" value="&lt;h1 style=&quot;border-color: var(--border-color); color: rgb(0, 0, 0); font-family: Helvetica; font-style: normal; font-variant-ligatures: normal; font-variant-caps: normal; letter-spacing: normal; orphans: 2; text-align: left; text-indent: 0px; text-transform: none; widows: 2; word-spacing: 0px; -webkit-text-stroke-width: 0px; background-color: rgb(251, 251, 251); text-decoration-thickness: initial; text-decoration-style: initial; text-decoration-color: initial;&quot;&gt;2、奖励池Vault&lt;/h1&gt;&lt;p style=&quot;border-color: var(--border-color); color: rgb(0, 0, 0); font-family: Helvetica; font-size: 12px; font-style: normal; font-variant-ligatures: normal; font-variant-caps: normal; font-weight: 400; letter-spacing: normal; orphans: 2; text-align: left; text-indent: 0px; text-transform: none; widows: 2; word-spacing: 0px; -webkit-text-stroke-width: 0px; background-color: rgb(251, 251, 251); text-decoration-thickness: initial; text-decoration-style: initial; text-decoration-color: initial;&quot;&gt;合约：HATVault.sol&lt;/p&gt;&lt;p style=&quot;border-color: var(--border-color); text-align: left;&quot;&gt;&amp;nbsp;1）用户存款（将 Vault 的原生代币存入 Vault 中 ）=&amp;gt; 获得股份 =&amp;gt; 获得存款奖励 =&amp;gt; 提取存款 (安全期间或存在赏金支付的活动索赔期间不许提现，提现支付手续费)&lt;/p&gt;&lt;div style=&quot;text-align: left;&quot;&gt;&lt;br&gt;&lt;/div&gt;" style="rounded=0;whiteSpace=wrap;html=1;" vertex="1" parent="1">
          <mxGeometry x="280" y="330" width="210" height="170" as="geometry" />
        </mxCell>
        <mxCell id="4H7mcCDcga6soc7QBMgQ-5" value="" style="edgeStyle=orthogonalEdgeStyle;rounded=0;orthogonalLoop=1;jettySize=auto;html=1;" edge="1" parent="1" source="4H7mcCDcga6soc7QBMgQ-4" target="4H7mcCDcga6soc7QBMgQ-3">
          <mxGeometry relative="1" as="geometry" />
        </mxCell>
        <mxCell id="4H7mcCDcga6soc7QBMgQ-4" value="&lt;h1 style=&quot;border-color: var(--border-color); color: rgb(0, 0, 0); font-family: Helvetica; font-style: normal; font-variant-ligatures: normal; font-variant-caps: normal; letter-spacing: normal; orphans: 2; text-align: left; text-indent: 0px; text-transform: none; widows: 2; word-spacing: 0px; -webkit-text-stroke-width: 0px; background-color: rgb(251, 251, 251); text-decoration-thickness: initial; text-decoration-style: initial; text-decoration-color: initial;&quot;&gt;2、Vault创建&lt;/h1&gt;&lt;p style=&quot;border-color: var(--border-color); color: rgb(0, 0, 0); font-family: Helvetica; font-size: 12px; font-style: normal; font-variant-ligatures: normal; font-variant-caps: normal; font-weight: 400; letter-spacing: normal; orphans: 2; text-align: left; text-indent: 0px; text-transform: none; widows: 2; word-spacing: 0px; -webkit-text-stroke-width: 0px; background-color: rgb(251, 251, 251); text-decoration-thickness: initial; text-decoration-style: initial; text-decoration-color: initial;&quot;&gt;合约：HATVaultsRegistry.sol&lt;/p&gt;&lt;p style=&quot;border-color: var(--border-color); text-align: left;&quot;&gt;&amp;nbsp;1）创建和管理 Vaults(每个 Vault 都是独立的漏洞赏金计划) =&amp;gt; 设置漏洞赏金的参数（提现、安全期限、手续费、可见性）=&amp;gt; 奖励分配 （vesting 合约）=&amp;gt; 兑换 Token(将指定资产兑换成 HAT 代币、将特定资产的奖励添加到兑换池)&lt;/p&gt;" style="rounded=0;whiteSpace=wrap;html=1;" vertex="1" parent="1">
          <mxGeometry x="557" y="305" width="203" height="220" as="geometry" />
        </mxCell>
        <mxCell id="4H7mcCDcga6soc7QBMgQ-6" value="&lt;h1 style=&quot;border-color: var(--border-color); color: rgb(0, 0, 0); font-family: Helvetica; font-style: normal; font-variant-ligatures: normal; font-variant-caps: normal; letter-spacing: normal; orphans: 2; text-align: left; text-indent: 0px; text-transform: none; widows: 2; word-spacing: 0px; -webkit-text-stroke-width: 0px; background-color: rgb(251, 251, 251); text-decoration-thickness: initial; text-decoration-style: initial; text-decoration-color: initial;&quot;&gt;2、奖励池控制器&lt;/h1&gt;&lt;p style=&quot;border-color: var(--border-color); color: rgb(0, 0, 0); font-family: Helvetica; font-size: 12px; font-style: normal; font-variant-ligatures: normal; font-variant-caps: normal; font-weight: 400; letter-spacing: normal; orphans: 2; text-align: left; text-indent: 0px; text-transform: none; widows: 2; word-spacing: 0px; -webkit-text-stroke-width: 0px; background-color: rgb(251, 251, 251); text-decoration-thickness: initial; text-decoration-style: initial; text-decoration-color: initial;&quot;&gt;合约：RewardController.sol&lt;/p&gt;&lt;p style=&quot;border-color: var(--border-color); text-align: left;&quot;&gt;&amp;nbsp;1）奖励控制器初始化（奖励代币的地址、管理员地址、奖励开始块、奖励周期长度等）=&amp;gt; 设置奖励分配点数（分配比例）=&amp;gt; 更新奖励池（奖励每份份额）=&amp;gt; 周期奖励（设置每个奖励周期内的奖励代币数量）&lt;/p&gt;&lt;p style=&quot;border-color: var(--border-color); text-align: left;&quot;&gt;&lt;span style=&quot;font-size: 12px;&quot;&gt;&amp;nbsp;2）用户奖励池变化（更新奖励债务和未领取奖励）=&amp;gt; 领取奖励 =&amp;gt; 查询奖励 =&amp;gt; 提取代币&lt;/span&gt;&lt;/p&gt;" style="rounded=0;whiteSpace=wrap;html=1;" vertex="1" parent="1">
          <mxGeometry x="30" y="290" width="200" height="250" as="geometry" />
        </mxCell>
        <mxCell id="4H7mcCDcga6soc7QBMgQ-10" value="" style="edgeStyle=orthogonalEdgeStyle;rounded=0;orthogonalLoop=1;jettySize=auto;html=1;" edge="1" parent="1" source="4H7mcCDcga6soc7QBMgQ-8" target="4H7mcCDcga6soc7QBMgQ-3">
          <mxGeometry relative="1" as="geometry" />
        </mxCell>
        <mxCell id="4H7mcCDcga6soc7QBMgQ-8" value="&lt;h1 style=&quot;border-color: var(--border-color); color: rgb(0, 0, 0); font-family: Helvetica; font-style: normal; font-variant-ligatures: normal; font-variant-caps: normal; letter-spacing: normal; orphans: 2; text-align: left; text-indent: 0px; text-transform: none; widows: 2; word-spacing: 0px; -webkit-text-stroke-width: 0px; background-color: rgb(251, 251, 251); text-decoration-thickness: initial; text-decoration-style: initial; text-decoration-color: initial;&quot;&gt;1、HAT 代币&lt;/h1&gt;&lt;p style=&quot;border-color: var(--border-color); color: rgb(0, 0, 0); font-family: Helvetica; font-size: 12px; font-style: normal; font-variant-ligatures: normal; font-variant-caps: normal; font-weight: 400; letter-spacing: normal; orphans: 2; text-align: left; text-indent: 0px; text-transform: none; widows: 2; word-spacing: 0px; -webkit-text-stroke-width: 0px; background-color: rgb(251, 251, 251); text-decoration-thickness: initial; text-decoration-style: initial; text-decoration-color: initial;&quot;&gt;合约：HATToken.sol&lt;/p&gt;&lt;p style=&quot;border-color: var(--border-color); text-align: left;&quot;&gt;&amp;nbsp;1）标准代币（转账、余额查询）=&amp;gt; 投票 =&amp;gt; 铸币（总供应量限制、所有权控制、设置铸币者和铸币数量）=&amp;gt;转账（可转让性设置、转账限制）=&amp;gt; 销毁&lt;/p&gt;&lt;div style=&quot;text-align: left;&quot;&gt;&lt;span style=&quot;background-color: initial;&quot;&gt;&lt;br&gt;&lt;/span&gt;&lt;/div&gt;" style="rounded=0;whiteSpace=wrap;html=1;" vertex="1" parent="1">
          <mxGeometry x="280" y="95" width="210" height="170" as="geometry" />
        </mxCell>
        <mxCell id="4H7mcCDcga6soc7QBMgQ-13" value="" style="edgeStyle=orthogonalEdgeStyle;rounded=0;orthogonalLoop=1;jettySize=auto;html=1;" edge="1" parent="1" source="4H7mcCDcga6soc7QBMgQ-11" target="4H7mcCDcga6soc7QBMgQ-8">
          <mxGeometry relative="1" as="geometry" />
        </mxCell>
        <mxCell id="4H7mcCDcga6soc7QBMgQ-11" value="&lt;h1 style=&quot;border-color: var(--border-color); color: rgb(0, 0, 0); font-family: Helvetica; font-style: normal; font-variant-ligatures: normal; font-variant-caps: normal; letter-spacing: normal; orphans: 2; text-align: left; text-indent: 0px; text-transform: none; widows: 2; word-spacing: 0px; -webkit-text-stroke-width: 0px; background-color: rgb(251, 251, 251); text-decoration-thickness: initial; text-decoration-style: initial; text-decoration-color: initial;&quot;&gt;1、时间锁&lt;/h1&gt;&lt;p style=&quot;border-color: var(--border-color); color: rgb(0, 0, 0); font-family: Helvetica; font-size: 12px; font-style: normal; font-variant-ligatures: normal; font-variant-caps: normal; font-weight: 400; letter-spacing: normal; orphans: 2; text-align: left; text-indent: 0px; text-transform: none; widows: 2; word-spacing: 0px; -webkit-text-stroke-width: 0px; background-color: rgb(251, 251, 251); text-decoration-thickness: initial; text-decoration-style: initial; text-decoration-color: initial;&quot;&gt;合约：HATTimelockController.sol&lt;/p&gt;&lt;p style=&quot;border-color: var(--border-color); text-align: left;&quot;&gt;&amp;nbsp;1）标准代币（转账、余额查询）=&amp;gt; 投票 =&amp;gt; 铸币（总供应量限制、所有权控制、设置铸币者和铸币数量）=&amp;gt;转账（可转让性设置、转账限制）=&amp;gt; 销毁1）初始化：最小延迟时间 (_minDelay)、提案发起者 (_proposers) 和 执行者 (_executors) 的地址数组&lt;/p&gt;&lt;p style=&quot;border-color: var(--border-color); text-align: left;&quot;&gt;&lt;span style=&quot;font-size: 12px;&quot;&gt;&amp;nbsp; 2）提案发起者：批准、驳回索赔请求；设置委员会成员、设置 Vault 的描述信息、可见性；设置奖励控制器的分配点数、设置暂停、兑换资产并发送给受益人；&lt;/span&gt;&lt;/p&gt;" style="rounded=0;whiteSpace=wrap;html=1;" vertex="1" parent="1">
          <mxGeometry x="557" y="60" width="273" height="240" as="geometry" />
        </mxCell>
        <mxCell id="4H7mcCDcga6soc7QBMgQ-16" value="" style="edgeStyle=orthogonalEdgeStyle;rounded=0;orthogonalLoop=1;jettySize=auto;html=1;" edge="1" parent="1" source="4H7mcCDcga6soc7QBMgQ-14" target="4H7mcCDcga6soc7QBMgQ-6">
          <mxGeometry relative="1" as="geometry" />
        </mxCell>
        <mxCell id="4H7mcCDcga6soc7QBMgQ-38" value="" style="edgeStyle=orthogonalEdgeStyle;rounded=0;orthogonalLoop=1;jettySize=auto;html=1;" edge="1" parent="1" source="4H7mcCDcga6soc7QBMgQ-14" target="4H7mcCDcga6soc7QBMgQ-17">
          <mxGeometry relative="1" as="geometry" />
        </mxCell>
        <mxCell id="4H7mcCDcga6soc7QBMgQ-14" value="&lt;h1 style=&quot;border-color: var(--border-color); color: rgb(0, 0, 0); font-family: Helvetica; font-style: normal; font-variant-ligatures: normal; font-variant-caps: normal; letter-spacing: normal; orphans: 2; text-align: left; text-indent: 0px; text-transform: none; widows: 2; word-spacing: 0px; -webkit-text-stroke-width: 0px; background-color: rgb(251, 251, 251); text-decoration-thickness: initial; text-decoration-style: initial; text-decoration-color: initial;&quot;&gt;2、支付分配器&lt;/h1&gt;&lt;p style=&quot;border-color: var(--border-color); color: rgb(0, 0, 0); font-family: Helvetica; font-size: 12px; font-style: normal; font-variant-ligatures: normal; font-variant-caps: normal; font-weight: 400; letter-spacing: normal; orphans: 2; text-align: left; text-indent: 0px; text-transform: none; widows: 2; word-spacing: 0px; -webkit-text-stroke-width: 0px; background-color: rgb(251, 251, 251); text-decoration-thickness: initial; text-decoration-style: initial; text-decoration-color: initial;&quot;&gt;合约: HATPaymentSplitter.sol&lt;/p&gt;&lt;p style=&quot;border-color: var(--border-color); text-align: left;&quot;&gt;&amp;nbsp;&lt;span style=&quot;background-color: initial;&quot;&gt;1）初始化后，合约就可以开始接收支付并按照设定的份额分发给收款人。&lt;/span&gt;&lt;/p&gt;&lt;p style=&quot;border-color: var(--border-color); text-align: left;&quot;&gt;&lt;span style=&quot;font-size: 12px;&quot;&gt;&amp;nbsp;2）释放 token =&amp;gt; 提取多余的 token =&amp;gt;&amp;nbsp; 清理意外发送的 token&lt;/span&gt;&lt;/p&gt;" style="rounded=0;whiteSpace=wrap;html=1;" vertex="1" parent="1">
          <mxGeometry x="-270" y="335" width="200" height="160" as="geometry" />
        </mxCell>
        <mxCell id="4H7mcCDcga6soc7QBMgQ-17" value="&lt;h1 style=&quot;border-color: var(--border-color); color: rgb(0, 0, 0); font-family: Helvetica; font-style: normal; font-variant-ligatures: normal; font-variant-caps: normal; letter-spacing: normal; orphans: 2; text-align: left; text-indent: 0px; text-transform: none; widows: 2; word-spacing: 0px; -webkit-text-stroke-width: 0px; background-color: rgb(251, 251, 251); text-decoration-thickness: initial; text-decoration-style: initial; text-decoration-color: initial;&quot;&gt;2、提供工厂模式用于创建支付分配器的实例&lt;/h1&gt;&lt;p style=&quot;border-color: var(--border-color); color: rgb(0, 0, 0); font-family: Helvetica; font-size: 12px; font-style: normal; font-variant-ligatures: normal; font-variant-caps: normal; font-weight: 400; letter-spacing: normal; orphans: 2; text-align: left; text-indent: 0px; text-transform: none; widows: 2; word-spacing: 0px; -webkit-text-stroke-width: 0px; background-color: rgb(251, 251, 251); text-decoration-thickness: initial; text-decoration-style: initial; text-decoration-color: initial;&quot;&gt;合约: HATPaymentSplitterFactory.sol&lt;/p&gt;&lt;p style=&quot;border-color: var(--border-color); text-align: left;&quot;&gt;&amp;nbsp;1）支付分配器可以用于将收款转发到多个地址，并按照预先定义的份额分配给每个收款人。&lt;/p&gt;" style="rounded=0;whiteSpace=wrap;html=1;" vertex="1" parent="1">
          <mxGeometry x="-270" y="80" width="200" height="200" as="geometry" />
        </mxCell>
        <mxCell id="4H7mcCDcga6soc7QBMgQ-19" value="&lt;h1 style=&quot;border-color: var(--border-color); color: rgb(0, 0, 0); font-family: Helvetica; font-style: normal; font-variant-ligatures: normal; font-variant-caps: normal; letter-spacing: normal; orphans: 2; text-align: left; text-indent: 0px; text-transform: none; widows: 2; word-spacing: 0px; -webkit-text-stroke-width: 0px; background-color: rgb(251, 251, 251); text-decoration-thickness: initial; text-decoration-style: initial; text-decoration-color: initial;&quot;&gt;3、仲裁索赔&lt;/h1&gt;&lt;p style=&quot;border-color: var(--border-color); color: rgb(0, 0, 0); font-family: Helvetica; font-size: 12px; font-style: normal; font-variant-ligatures: normal; font-variant-caps: normal; font-weight: 400; letter-spacing: normal; orphans: 2; text-align: left; text-indent: 0px; text-transform: none; widows: 2; word-spacing: 0px; -webkit-text-stroke-width: 0px; background-color: rgb(251, 251, 251); text-decoration-thickness: initial; text-decoration-style: initial; text-decoration-color: initial;&quot;&gt;合约: HATKlerosV2Connector.sol&lt;/p&gt;&lt;p style=&quot;border-color: var(--border-color); color: rgb(0, 0, 0); font-family: Helvetica; font-size: 12px; font-style: normal; font-variant-ligatures: normal; font-variant-caps: normal; font-weight: 400; letter-spacing: normal; orphans: 2; text-align: left; text-indent: 0px; text-transform: none; widows: 2; word-spacing: 0px; -webkit-text-stroke-width: 0px; background-color: rgb(251, 251, 251); text-decoration-thickness: initial; text-decoration-style: initial; text-decoration-color: initial;&quot;&gt;处理有争议的索赔&lt;/p&gt;&lt;p style=&quot;border-color: var(--border-color); text-align: left;&quot;&gt;&amp;nbsp;1)&amp;nbsp;&lt;span style=&quot;background-color: initial;&quot;&gt;该合约充当了 HatsFinance 和 Kleros 法庭之间的连接器，使得 HatsFinance 可以将争议提交给 Kleros 法庭，并接受来自法庭的裁决。&lt;/span&gt;&lt;/p&gt;&lt;p style=&quot;border-color: var(--border-color); text-align: left;&quot;&gt;&lt;span style=&quot;font-size: 12px;&quot;&gt;&amp;nbsp;2）&lt;/span&gt;当专家委员会的决定受到质疑时，由 Hat 仲裁器调用以通知 Kleros 仲裁器 =&amp;gt;&amp;nbsp;对争议作出裁决&lt;/p&gt;" style="rounded=0;whiteSpace=wrap;html=1;" vertex="1" parent="1">
          <mxGeometry x="-150" y="590" width="320" height="190" as="geometry" />
        </mxCell>
        <mxCell id="4H7mcCDcga6soc7QBMgQ-41" value="" style="edgeStyle=orthogonalEdgeStyle;rounded=0;orthogonalLoop=1;jettySize=auto;html=1;" edge="1" parent="1" source="4H7mcCDcga6soc7QBMgQ-21" target="4H7mcCDcga6soc7QBMgQ-19">
          <mxGeometry relative="1" as="geometry" />
        </mxCell>
        <mxCell id="4H7mcCDcga6soc7QBMgQ-21" value="&lt;h1 style=&quot;border-color: var(--border-color); color: rgb(0, 0, 0); font-family: Helvetica; font-style: normal; font-variant-ligatures: normal; font-variant-caps: normal; letter-spacing: normal; orphans: 2; text-align: left; text-indent: 0px; text-transform: none; widows: 2; word-spacing: 0px; -webkit-text-stroke-width: 0px; background-color: rgb(251, 251, 251); text-decoration-thickness: initial; text-decoration-style: initial; text-decoration-color: initial;&quot;&gt;3、仲裁索赔&lt;/h1&gt;&lt;p style=&quot;border-color: var(--border-color); color: rgb(0, 0, 0); font-family: Helvetica; font-size: 12px; font-style: normal; font-variant-ligatures: normal; font-variant-caps: normal; font-weight: 400; letter-spacing: normal; orphans: 2; text-align: left; text-indent: 0px; text-transform: none; widows: 2; word-spacing: 0px; -webkit-text-stroke-width: 0px; background-color: rgb(251, 251, 251); text-decoration-thickness: initial; text-decoration-style: initial; text-decoration-color: initial;&quot;&gt;合约: HATKlerosConnector.sol&lt;/p&gt;&lt;p style=&quot;border-color: var(--border-color); text-align: left;&quot;&gt;&amp;nbsp;&lt;span style=&quot;background-color: initial;&quot;&gt;HatsFinance 向 Kleros 法庭提交争议并接受裁决&lt;/span&gt;&lt;/p&gt;&lt;p style=&quot;border-color: var(--border-color); text-align: left;&quot;&gt;&lt;span style=&quot;font-size: 12px;&quot;&gt;&amp;nbsp;1）初始化：Kleros 法庭合约的地址、额外数据； HatsFinance 的仲裁合约地址、用于争议的元证据、用于计算申请费的乘数。&lt;/span&gt;&lt;/p&gt;&lt;p style=&quot;border-color: var(--border-color); text-align: left;&quot;&gt;&lt;span style=&quot;font-size: 12px;&quot;&gt;&amp;nbsp;2）提交争议 =&amp;gt; 处理争议 =&amp;gt; 申请费和奖励 =&amp;gt; 查询和获取信息&lt;/span&gt;&lt;/p&gt;" style="rounded=0;whiteSpace=wrap;html=1;" vertex="1" parent="1">
          <mxGeometry x="-590" y="605" width="380" height="160" as="geometry" />
        </mxCell>
        <mxCell id="4H7mcCDcga6soc7QBMgQ-36" value="" style="edgeStyle=orthogonalEdgeStyle;rounded=0;orthogonalLoop=1;jettySize=auto;html=1;" edge="1" parent="1" source="4H7mcCDcga6soc7QBMgQ-23" target="4H7mcCDcga6soc7QBMgQ-8">
          <mxGeometry relative="1" as="geometry" />
        </mxCell>
        <mxCell id="4H7mcCDcga6soc7QBMgQ-23" value="&lt;h1 style=&quot;border-color: var(--border-color); color: rgb(0, 0, 0); font-family: Helvetica; font-style: normal; font-variant-ligatures: normal; font-variant-caps: normal; letter-spacing: normal; orphans: 2; text-align: left; text-indent: 0px; text-transform: none; widows: 2; word-spacing: 0px; -webkit-text-stroke-width: 0px; background-color: rgb(251, 251, 251); text-decoration-thickness: initial; text-decoration-style: initial; text-decoration-color: initial;&quot;&gt;1、NFT&lt;/h1&gt;&lt;p style=&quot;border-color: var(--border-color); color: rgb(0, 0, 0); font-family: Helvetica; font-size: 12px; font-style: normal; font-variant-ligatures: normal; font-variant-caps: normal; font-weight: 400; letter-spacing: normal; orphans: 2; text-align: left; text-indent: 0px; text-transform: none; widows: 2; word-spacing: 0px; -webkit-text-stroke-width: 0px; background-color: rgb(251, 251, 251); text-decoration-thickness: initial; text-decoration-style: initial; text-decoration-color: initial;&quot;&gt;合约：HATVault.sol&lt;/p&gt;&lt;p style=&quot;border-color: var(--border-color); text-align: left;&quot;&gt;&amp;nbsp;1）用户存款（将 Vault 的原生代币存入 Vault 中 ）=&amp;gt; 获得股份 =&amp;gt; 获得存款奖励 =&amp;gt; 提取存款 (安全期间或存在赏金支付的活动索赔期间不许提现，提现支付手续费)&lt;/p&gt;&lt;div style=&quot;text-align: left;&quot;&gt;&lt;br&gt;&lt;/div&gt;" style="rounded=0;whiteSpace=wrap;html=1;" vertex="1" parent="1">
          <mxGeometry x="25" y="95" width="210" height="170" as="geometry" />
        </mxCell>
        <mxCell id="4H7mcCDcga6soc7QBMgQ-29" value="" style="edgeStyle=orthogonalEdgeStyle;rounded=0;orthogonalLoop=1;jettySize=auto;html=1;" edge="1" parent="1" source="4H7mcCDcga6soc7QBMgQ-25" target="4H7mcCDcga6soc7QBMgQ-28">
          <mxGeometry relative="1" as="geometry" />
        </mxCell>
        <mxCell id="4H7mcCDcga6soc7QBMgQ-25" value="&lt;h1 style=&quot;border-color: var(--border-color); color: rgb(0, 0, 0); font-family: Helvetica; font-style: normal; font-variant-ligatures: normal; font-variant-caps: normal; letter-spacing: normal; orphans: 2; text-align: left; text-indent: 0px; text-transform: none; widows: 2; word-spacing: 0px; -webkit-text-stroke-width: 0px; background-color: rgb(251, 251, 251); text-decoration-thickness: initial; text-decoration-style: initial; text-decoration-color: initial;&quot;&gt;3、管理索赔的治理仲裁器&lt;/h1&gt;&lt;p style=&quot;border-color: var(--border-color); color: rgb(0, 0, 0); font-family: Helvetica; font-size: 12px; font-style: normal; font-variant-ligatures: normal; font-variant-caps: normal; font-weight: 400; letter-spacing: normal; orphans: 2; text-align: left; text-indent: 0px; text-transform: none; widows: 2; word-spacing: 0px; -webkit-text-stroke-width: 0px; background-color: rgb(251, 251, 251); text-decoration-thickness: initial; text-decoration-style: initial; text-decoration-color: initial;&quot;&gt;合约: HATGovernanceArbitrator.sol&lt;/p&gt;&lt;p style=&quot;border-color: var(--border-color); text-align: left;&quot;&gt;&lt;span style=&quot;background-color: initial;&quot;&gt;1）&lt;/span&gt;&lt;span style=&quot;background-color: initial;&quot;&gt;只有合约的所有者可以批准和驳回索赔&lt;/span&gt;&lt;/p&gt;" style="rounded=0;whiteSpace=wrap;html=1;" vertex="1" parent="1">
          <mxGeometry x="590" y="555" width="280" height="110" as="geometry" />
        </mxCell>
        <mxCell id="4H7mcCDcga6soc7QBMgQ-39" value="" style="edgeStyle=orthogonalEdgeStyle;rounded=0;orthogonalLoop=1;jettySize=auto;html=1;" edge="1" parent="1" source="4H7mcCDcga6soc7QBMgQ-28" target="4H7mcCDcga6soc7QBMgQ-19">
          <mxGeometry relative="1" as="geometry" />
        </mxCell>
        <mxCell id="4H7mcCDcga6soc7QBMgQ-28" value="&lt;h1 style=&quot;border-color: var(--border-color); color: rgb(0, 0, 0); font-family: Helvetica; font-style: normal; font-variant-ligatures: normal; font-variant-caps: normal; letter-spacing: normal; orphans: 2; text-align: left; text-indent: 0px; text-transform: none; widows: 2; word-spacing: 0px; -webkit-text-stroke-width: 0px; background-color: rgb(251, 251, 251); text-decoration-thickness: initial; text-decoration-style: initial; text-decoration-color: initial;&quot;&gt;3、索赔管理器&lt;/h1&gt;&lt;p style=&quot;border-color: var(--border-color); color: rgb(0, 0, 0); font-family: Helvetica; font-size: 12px; font-style: normal; font-variant-ligatures: normal; font-variant-caps: normal; font-weight: 400; letter-spacing: normal; orphans: 2; text-align: left; text-indent: 0px; text-transform: none; widows: 2; word-spacing: 0px; -webkit-text-stroke-width: 0px; background-color: rgb(251, 251, 251); text-decoration-thickness: initial; text-decoration-style: initial; text-decoration-color: initial;&quot;&gt;合约: HATClaimsManager.sol&amp;nbsp; 索赔&lt;/p&gt;&lt;p style=&quot;border-color: var(--border-color); text-align: left;&quot;&gt;1）索赔流程：负责处理用户提交的索赔请求 =&amp;gt; 审查、批准、驳回 =&amp;gt; 并根据审查结果分配相应的赏金。&lt;/p&gt;&lt;p style=&quot;border-color: var(--border-color); text-align: left;&quot;&gt;&lt;span style=&quot;font-size: 12px;&quot;&gt;2) 状态变量：存储了合约的关键信息，如最大赏金百分比、锁定期持续时间、委员会地址等。&lt;/span&gt;&lt;/p&gt;" style="rounded=0;whiteSpace=wrap;html=1;" vertex="1" parent="1">
          <mxGeometry x="245" y="600" width="280" height="170" as="geometry" />
        </mxCell>
        <mxCell id="4H7mcCDcga6soc7QBMgQ-40" value="" style="edgeStyle=orthogonalEdgeStyle;rounded=0;orthogonalLoop=1;jettySize=auto;html=1;" edge="1" parent="1" source="4H7mcCDcga6soc7QBMgQ-31" target="4H7mcCDcga6soc7QBMgQ-19">
          <mxGeometry relative="1" as="geometry" />
        </mxCell>
        <mxCell id="4H7mcCDcga6soc7QBMgQ-31" value="&lt;h1 style=&quot;border-color: var(--border-color); color: rgb(0, 0, 0); font-family: Helvetica; font-style: normal; font-variant-ligatures: normal; font-variant-caps: normal; letter-spacing: normal; orphans: 2; text-align: left; text-indent: 0px; text-transform: none; widows: 2; word-spacing: 0px; -webkit-text-stroke-width: 0px; background-color: rgb(251, 251, 251); text-decoration-thickness: initial; text-decoration-style: initial; text-decoration-color: initial;&quot;&gt;3、仲裁器(处理索赔争议)&lt;/h1&gt;&lt;p style=&quot;border-color: var(--border-color); color: rgb(0, 0, 0); font-family: Helvetica; font-size: 12px; font-style: normal; font-variant-ligatures: normal; font-variant-caps: normal; font-weight: 400; letter-spacing: normal; orphans: 2; text-align: left; text-indent: 0px; text-transform: none; widows: 2; word-spacing: 0px; -webkit-text-stroke-width: 0px; background-color: rgb(251, 251, 251); text-decoration-thickness: initial; text-decoration-style: initial; text-decoration-color: initial;&quot;&gt;合约: HATArbitrator.sol&lt;/p&gt;&lt;p style=&quot;border-color: var(--border-color); text-align: left;&quot;&gt;&amp;nbsp;&lt;span style=&quot;background-color: initial;&quot;&gt;1）设置：确定专家委员会和法庭地址、最低和总抵押金额（抵押金可否被索赔者赎回）、解决争议的审核期限、记录每个索赔的总抵押金额和解决方案。&lt;/span&gt;&lt;/p&gt;&lt;p style=&quot;border-color: var(--border-color); text-align: left;&quot;&gt;&lt;span style=&quot;font-size: 12px;&quot;&gt;&amp;nbsp;2）存储提交索赔请求的注册表（包括请求者、抵押金、提交时间和描述哈希）；处理争议相关的异常情况（如争议不是当前有效索赔、索赔已过期等）。&lt;/span&gt;&lt;/p&gt;" style="rounded=0;whiteSpace=wrap;html=1;" vertex="1" parent="1">
          <mxGeometry x="-160" y="830" width="330" height="190" as="geometry" />
        </mxCell>
      </root>
    </mxGraphModel>
  </diagram>
</mxfile>
